<svg
                      width="41"
                      height="41"
                      viewBox="0 0 41 41"
                      fill="none"
                      xmlns="http://www.w3.org/2000/svg"
                    >
                      <rect
                        x="0.461914"
                        y="0.106812"
                        width="40"
                        height="40"
                        rx="8"
                        fill="white"
                      />
                      <path
                        d="M26.0868 15.9818C25.602 15.9813 25.1267 16.1159 24.7141 16.3704C24.5678 16.0569 24.3609 15.7755 24.1054 15.5423C23.8498 15.3091 23.5507 15.1287 23.2251 15.0116C22.8996 14.8945 22.5541 14.843 22.2086 14.86C21.863 14.877 21.5243 14.9621 21.2118 15.1106V11.4818C21.2118 10.7856 20.9352 10.1179 20.4429 9.62566C19.9506 9.13337 19.283 8.85681 18.5868 8.85681C17.8906 8.85681 17.2229 9.13337 16.7306 9.62566C16.2383 10.1179 15.9618 10.7856 15.9618 11.4818V20.0515L15.3056 18.9149C14.9589 18.3145 14.3888 17.8755 13.7196 17.694C13.0504 17.5124 12.3366 17.603 11.734 17.9459C11.1313 18.2888 10.6889 18.8563 10.5031 19.5243C10.3174 20.1923 10.4036 20.9067 10.7427 21.5115C13.7847 27.9255 15.8112 30.6068 20.4618 30.6068C22.6491 30.6043 24.746 29.7344 26.2927 28.1877C27.8393 26.6411 28.7093 24.5441 28.7118 22.3568V18.6068C28.711 17.9109 28.4342 17.2436 27.9421 16.7515C27.45 16.2594 26.7827 15.9826 26.0868 15.9818ZM27.2118 22.3568C27.2098 24.1464 26.498 25.8621 25.2325 27.1276C23.9671 28.393 22.2514 29.1048 20.4618 29.1068C18.57 29.1068 17.253 28.5954 16.0579 27.397C14.8861 26.2219 13.7355 24.3233 12.0863 20.8437C12.0776 20.8254 12.0681 20.8075 12.058 20.7899C11.9088 20.5315 11.8684 20.2244 11.9456 19.9362C12.0228 19.648 12.2114 19.4023 12.4698 19.2531C12.7282 19.1039 13.0353 19.0635 13.3235 19.1407C13.6117 19.218 13.8574 19.4065 14.0066 19.6649L16.0623 23.2255C16.1448 23.3685 16.2723 23.4802 16.4248 23.5434C16.5773 23.6066 16.7464 23.6177 16.9059 23.575C17.0654 23.5322 17.2063 23.4381 17.3068 23.3071C17.4073 23.1761 17.4618 23.0156 17.4618 22.8505V11.4818C17.4618 11.1834 17.5803 10.8973 17.7913 10.6863C18.0023 10.4753 18.2884 10.3568 18.5868 10.3568C18.8851 10.3568 19.1713 10.4753 19.3823 10.6863C19.5932 10.8973 19.7118 11.1834 19.7118 11.4818V17.8568C19.7118 18.0557 19.7908 18.2465 19.9314 18.3871C20.0721 18.5278 20.2629 18.6068 20.4618 18.6068C20.6607 18.6068 20.8515 18.5278 20.9921 18.3871C21.1328 18.2465 21.2118 18.0557 21.2118 17.8568V17.4818C21.2118 17.1834 21.3303 16.8973 21.5413 16.6863C21.7523 16.4753 22.0384 16.3568 22.3368 16.3568C22.6351 16.3568 22.9213 16.4753 23.1323 16.6863C23.3432 16.8973 23.4618 17.1834 23.4618 17.4818V18.6068C23.4618 18.8057 23.5408 18.9965 23.6814 19.1371C23.8221 19.2778 24.0129 19.3568 24.2118 19.3568C24.4107 19.3568 24.6015 19.2778 24.7421 19.1371C24.8828 18.9965 24.9618 18.8057 24.9618 18.6068C24.9618 18.3084 25.0803 18.0223 25.2913 17.8113C25.5023 17.6003 25.7884 17.4818 26.0868 17.4818C26.3851 17.4818 26.6713 17.6003 26.8823 17.8113C27.0932 18.0223 27.2118 18.3084 27.2118 18.6068V22.3568Z"
                        fill="url(#paint0_linear_3941_7862)"
                      />
                      <defs>
                        <linearGradient
                          id="paint0_linear_3941_7862"
                          x1="10.9047"
                          y1="21.7632"
                          x2="27.9857"
                          y2="21.5361"
                          gradientUnits="userSpaceOnUse"
                        >
                          <stop stop-color="#0E7469" />
                          <stop offset="1" stop-color="#2BAE95" />
                        </linearGradient>
                      </defs>
                    </svg>