<svg
                      width="41"
                      height="41"
                      viewBox="0 0 41 41"
                      fill="none"
                      xmlns="http://www.w3.org/2000/svg"
                    >
                      <rect
                        x="0.579102"
                        y="0.106812"
                        width="40"
                        height="40"
                        rx="8"
                        fill="white"
                      />
                      <path
                        d="M30.3232 27.9805C28.9237 25.5702 26.6826 23.7623 24.0307 22.9046C25.3011 22.1487 26.2882 20.9966 26.8405 19.6253C27.3927 18.254 27.4795 16.7394 27.0875 15.314C26.6955 13.8886 25.8464 12.6313 24.6707 11.7352C23.4949 10.8391 22.0574 10.3538 20.5791 10.3538C19.1008 10.3538 17.6634 10.8391 16.4876 11.7352C15.3118 12.6313 14.4627 13.8886 14.0707 15.314C13.6788 16.7394 13.7655 18.254 14.3178 19.6253C14.87 20.9966 15.8572 22.1487 17.1276 22.9046C14.4758 23.7623 12.2347 25.5701 10.8352 27.9803C10.7692 28.0943 10.7345 28.2237 10.7344 28.3554C10.7343 28.4871 10.7689 28.6165 10.8347 28.7306C10.9005 28.8447 10.9952 28.9395 11.1092 29.0054C11.2233 29.0712 11.3527 29.1059 11.4844 29.1059L29.674 29.1061C29.8057 29.1061 29.9351 29.0714 30.0492 29.0056C30.1632 28.9397 30.2579 28.8449 30.3237 28.7308C30.3895 28.6167 30.4241 28.4873 30.424 28.3556C30.4239 28.2239 30.3892 28.0945 30.3232 27.9805L30.3232 27.9805Z"
                        fill="url(#paint0_linear_3941_7857)"
                      />
                      <defs>
                        <linearGradient
                          id="paint0_linear_3941_7857"
                          x1="11.2695"
                          y1="21.4814"
                          x2="29.6412"
                          y2="21.1766"
                          gradientUnits="userSpaceOnUse"
                        >
                          <stop stop-color="#0E7469" />
                          <stop offset="1" stop-color="#2BAE95" />
                        </linearGradient>
                      </defs>
                    </svg>