<svg
                    width="41"
                    height="41"
                    viewBox="0 0 41 41"
                    fill="none"
                    xmlns="http://www.w3.org/2000/svg"
                  >
                    <rect
                      x="0.34375"
                      y="0.106812"
                      width="40"
                      height="40"
                      rx="8"
                      fill="white"
                    />
                    <path
                      d="M18.0938 9.60681H22.5938C22.7927 9.60681 22.9834 9.52779 23.1241 9.38714C23.2647 9.24649 23.3438 9.05572 23.3438 8.85681C23.3438 8.6579 23.2647 8.46713 23.1241 8.32648C22.9834 8.18583 22.7927 8.10681 22.5938 8.10681H18.0938C17.8948 8.10681 17.7041 8.18583 17.5634 8.32648C17.4228 8.46713 17.3438 8.6579 17.3438 8.85681C17.3438 9.05572 17.4228 9.24649 17.5634 9.38714C17.7041 9.52779 17.8948 9.60681 18.0938 9.60681Z"
                      fill="url(#paint0_linear_3941_7872)"
                    />
                    <path
                      d="M20.3438 11.1068C18.5637 11.1068 16.8237 11.6347 15.3436 12.6236C13.8636 13.6125 12.71 15.0181 12.0288 16.6627C11.3476 18.3072 11.1694 20.1168 11.5167 21.8626C11.864 23.6085 12.7211 25.2121 13.9798 26.4708C15.2385 27.7294 16.8421 28.5866 18.5879 28.9339C20.3338 29.2811 22.1434 29.1029 23.7879 28.4217C25.4324 27.7405 26.838 26.587 27.827 25.1069C28.8159 23.6269 29.3438 21.8868 29.3438 20.1068C29.3411 17.7207 28.392 15.4331 26.7047 13.7458C25.0175 12.0586 22.7299 11.1095 20.3438 11.1068ZM24.5864 16.9248L20.8741 20.6371C20.8045 20.7068 20.7218 20.762 20.6308 20.7997C20.5398 20.8374 20.4423 20.8568 20.3438 20.8568C20.2453 20.8568 20.1478 20.8374 20.0568 20.7998C19.9658 20.7621 19.8831 20.7068 19.8134 20.6372C19.7438 20.5675 19.6885 20.4849 19.6508 20.3939C19.6131 20.3029 19.5937 20.2053 19.5937 20.1068C19.5937 20.0084 19.6131 19.9108 19.6508 19.8198C19.6885 19.7288 19.7437 19.6461 19.8134 19.5765L23.5257 15.8642C23.5954 15.7945 23.678 15.7393 23.769 15.7016C23.86 15.6639 23.9576 15.6445 24.056 15.6445C24.1545 15.6445 24.2521 15.6639 24.3431 15.7016C24.4341 15.7393 24.5167 15.7945 24.5864 15.8641C24.656 15.9338 24.7113 16.0165 24.749 16.1075C24.7867 16.1985 24.8061 16.296 24.8061 16.3945C24.8061 16.493 24.7867 16.5905 24.749 16.6815C24.7113 16.7725 24.656 16.8552 24.5864 16.9248H24.5864Z"
                      fill="url(#paint1_linear_3941_7872)"
                    />
                    <defs>
                      <linearGradient
                        id="paint0_linear_3941_7872"
                        x1="17.5068"
                        y1="8.99691"
                        x2="23.0844"
                        y2="8.64438"
                        gradientUnits="userSpaceOnUse"
                      >
                        <stop stop-color="#0E7469" />
                        <stop offset="1" stop-color="#2BAE95" />
                      </linearGradient>
                      <linearGradient
                        id="paint1_linear_3941_7872"
                        x1="11.8329"
                        y1="21.788"
                        x2="28.6285"
                        y2="21.5226"
                        gradientUnits="userSpaceOnUse"
                      >
                        <stop stop-color="#0E7469" />
                        <stop offset="1" stop-color="#2BAE95" />
                      </linearGradient>
                    </defs>
                  </svg>