<svg width="16" height="16" viewBox="0 0 16 16" fill="none" xmlns="http://www.w3.org/2000/svg">
<path d="M8.7073 7.99977L12.8538 3.85331C12.9474 3.75953 13 3.63238 13 3.49983C12.9999 3.36728 12.9473 3.24017 12.8535 3.14644C12.7598 3.05272 12.6327 3.00004 12.5001 3C12.3676 2.99996 12.2405 3.05255 12.1467 3.14622L8.00021 7.29268L3.85376 3.14622C3.75997 3.05255 3.63283 2.99996 3.50028 3C3.36773 3.00004 3.24061 3.05272 3.14689 3.14644C3.05316 3.24017 3.00049 3.36728 3.00044 3.49983C3.0004 3.63238 3.053 3.75953 3.14667 3.85331L7.29312 7.99977L3.14667 12.1462C3.10019 12.1926 3.06332 12.2478 3.03815 12.3084C3.01298 12.3691 3.00002 12.4341 3 12.4998C2.99998 12.5655 3.0129 12.6306 3.03803 12.6913C3.06316 12.7519 3.1 12.8071 3.14644 12.8535C3.19289 12.9 3.24803 12.9368 3.30872 12.962C3.36941 12.9871 3.43446 13 3.50015 13C3.56583 13 3.63087 12.987 3.69155 12.9618C3.75222 12.9367 3.80734 12.8998 3.85376 12.8533L8.00021 8.70686L12.1467 12.8533C12.2405 12.947 12.3676 12.9996 12.5001 12.9995C12.6327 12.9995 12.7598 12.9468 12.8535 12.8531C12.9473 12.7594 12.9999 12.6323 13 12.4997C13 12.3672 12.9474 12.24 12.8538 12.1462L8.7073 7.99977Z" fill="url(#paint0_linear_3522_8935)"/>
<defs>
<linearGradient id="paint0_linear_3522_8935" x1="7.99999" y1="3" x2="7.99999" y2="13" gradientUnits="userSpaceOnUse">
<stop stop-color="#0D6E65"/>
<stop offset="1" stop-color="#0D6E65"/>
</linearGradient>
</defs>
</svg>
